<svg xmlns="http://www.w3.org/2000/svg" width="40" height="40" viewBox="0 0 40 40" fill="none"><g clip-path="url(#clip0_1782_14779)"><path d="M20.0027 0C13.0591 0 7.40741 5.69483 7.40741 12.6913C7.40741 18.5199 11.2751 23.5316 16.8502 24.9766V36.8236C16.8502 38.5746 18.2613 40 20.0025 40C21.7437 40 23.1549 38.5746 23.1549 36.8236V24.9766C28.7266 23.5315 32.5926 18.5185 32.5926 12.6913C32.5926 5.69483 26.9463 0 20.0027 0ZM20.7127 10.6543C20.7127 10.1589 21.1103 9.75291 21.602 9.75291C22.0936 9.75291 22.4966 10.1589 22.4966 10.6543C22.4966 11.1498 22.0937 11.5504 21.602 11.5504C21.1103 11.5504 20.7127 11.1497 20.7127 10.6543ZM20.0027 18.0909H20.0081C23.4018 18.0855 26.4404 16.7548 28.622 15.4349C27.4097 19.1264 23.9272 21.7213 20.0026 21.7213C16.078 21.7213 12.5955 19.1262 11.3832 15.4399C13.5647 16.7616 16.6033 18.0923 19.9935 18.0923H20.0024L20.0027 18.0909ZM20.0081 7.04505H19.9939C16.6054 7.04505 13.5701 8.37031 11.3886 9.69201C12.6009 6.00947 16.0888 3.41983 20.0025 3.41983C23.9162 3.41983 27.4095 6.01496 28.6219 9.70117C26.4404 8.37947 23.4019 7.04862 20.0081 7.04505ZM16.6427 8.21831C15.3559 9.2288 14.527 10.8027 14.527 12.5733C14.527 14.3421 15.3559 15.9125 16.6427 16.9229C12.6899 15.8928 9.59418 13.3835 8.67131 12.5733C9.59428 11.7578 12.6899 9.24848 16.6427 8.21831ZM23.3732 16.9121C24.6512 15.9016 25.4801 14.3313 25.4801 12.5714C25.4801 10.8115 24.6512 9.23763 23.3732 8.2271C27.3119 9.25728 30.3967 11.7612 31.3196 12.5714C30.3967 13.3816 27.31 15.8819 23.3732 16.9121Z" fill="#F2F2F2"></path></g><defs><clipPath id="clip0_1782_14779"><rect width="40" height="40" fill="white"></rect></clipPath></defs></svg>