<svg xmlns="http://www.w3.org/2000/svg" width="40" height="40" viewBox="0 0 40 40" fill="none"><g clip-path="url(#clip0_223_22046)"><g clip-path="url(#clip1_223_22046)"><path fill-rule="evenodd" clip-rule="evenodd" d="M19.5363 23.0773C21.6221 23.0773 23.3123 24.8059 23.3123 26.9391C23.3123 29.0724 21.6221 30.801 19.5363 30.801C17.4504 30.801 15.7603 29.0724 15.7603 26.9391C15.7603 24.808 17.4504 23.0773 19.5363 23.0773ZM25.1475 30.2303C25.7264 30.6329 26.2379 31.1301 26.6588 31.6984C27.2734 32.5337 27.6923 33.5238 27.8291 34.6002H38.376C38.5444 34.6002 38.6981 34.5313 38.8096 34.4215C38.9211 34.3096 38.9927 34.1567 38.9969 33.9867L39.0706 31.2163C39.1001 30.1012 38.738 29.0636 38.1193 28.224C37.5362 27.434 36.7301 26.8183 35.8125 26.4761C35.3368 26.855 34.8022 27.1628 34.2296 27.3845C33.5561 27.645 32.8278 27.7892 32.0702 27.7892C31.3125 27.7892 30.5842 27.6471 29.9106 27.3845C29.3381 27.1627 28.8057 26.855 28.3279 26.4761C27.5028 26.784 26.7661 27.3113 26.2041 27.9873C25.6759 28.6222 25.3013 29.3908 25.1475 30.2303ZM15.7963 30.7792C15.5227 30.8826 15.2575 31.0074 15.0071 31.156C14.9945 31.1646 14.9838 31.171 14.9712 31.1775L14.9691 31.1796C14.3945 31.5262 13.8894 31.9846 13.4895 32.5272C12.9212 33.2978 12.5676 34.2364 12.5382 35.2481L12.5402 35.2869C12.5402 35.3084 12.5402 35.3321 12.5361 35.3536V35.5172L12.6097 38.2876C12.6139 38.4555 12.6854 38.6105 12.7971 38.7225C12.9086 38.8322 13.0602 38.9011 13.2306 38.9011H25.8423C26.0107 38.9011 26.1643 38.8322 26.2738 38.7225C26.3853 38.6105 26.4569 38.4577 26.4632 38.2876L26.5369 35.5172C26.539 35.4634 26.539 35.4074 26.539 35.3536C26.5369 35.3321 26.5348 35.3105 26.5348 35.2869V35.2481C26.5053 34.2364 26.1517 33.2978 25.5835 32.5272C25.1835 31.9847 24.6783 31.524 24.1038 31.1796L24.1016 31.1775L24.068 31.156C23.8154 31.0074 23.5523 30.8804 23.2766 30.7771C22.8009 31.156 22.2663 31.4638 21.6938 31.6855C21.0223 31.9481 20.294 32.0924 19.5364 32.0924C18.7787 32.0924 18.0504 31.9503 17.3768 31.6876C16.8044 31.4659 16.272 31.1581 15.7963 30.7792ZM13.9251 30.2303C13.3463 30.6329 12.8349 31.1301 12.4139 31.6984C11.7993 32.5337 11.3804 33.5238 11.2416 34.6002H0.696741C0.528358 34.6002 0.374707 34.5313 0.263154 34.4215C0.151601 34.3096 0.0800404 34.1567 0.0758268 33.9867L0.00215901 31.2163C-0.0273082 30.1012 0.334716 29.0636 0.953506 28.224C1.53651 27.434 2.34265 26.8183 3.26031 26.4761C3.736 26.855 4.27061 27.1628 4.84311 27.3845C5.51664 27.645 6.24492 27.7892 7.00261 27.7892C7.7603 27.7892 8.48857 27.6471 9.16211 27.3845C9.73461 27.1627 10.2671 26.855 10.7449 26.4761C11.5721 26.784 12.3066 27.3113 12.8686 27.9873C13.3969 28.6222 13.7715 29.3908 13.9251 30.2303ZM12.5297 15.6631H13.1886L12.7802 18.7931L16.392 15.6631H24.6763C25.1942 15.6631 25.6151 15.2304 25.6151 14.7031L25.6172 6.3658C25.6172 5.8384 25.1962 5.40571 24.6784 5.40571H12.5296C12.0139 5.40571 11.5909 5.83839 11.5909 6.3658V14.7008C11.5909 15.2304 12.0141 15.6631 12.5297 15.6631ZM26.9643 12.2555V6.36558C26.9643 5.07832 25.9371 4.02779 24.6784 4.02779H17.8526V2.96009C17.8526 2.43269 18.2757 2 18.7913 2H30.9402C31.4558 2 31.8789 2.43268 31.8789 2.96009V11.2951C31.8789 11.8225 31.4558 12.2552 30.9402 12.2552H30.2793L30.6876 15.3852L27.0758 12.2552L26.9643 12.2555ZM14.2259 13.8743C13.8555 13.8743 13.5524 13.5664 13.5524 13.1854C13.5524 12.8044 13.8555 12.4966 14.2259 12.4966H22.9817C23.3544 12.4966 23.6553 12.8044 23.6553 13.1854C23.6553 13.5664 23.3522 13.8743 22.9817 13.8743H14.2259ZM14.2259 11.2244C13.8555 11.2244 13.5524 10.9166 13.5524 10.5355C13.5524 10.1545 13.8555 9.84668 14.2259 9.84668H22.9817C23.3544 9.84668 23.6553 10.1545 23.6553 10.5355C23.6553 10.9166 23.3522 11.2244 22.9817 11.2244H14.2259ZM14.2259 8.57231C13.8555 8.57231 13.5524 8.26448 13.5524 7.88346C13.5524 7.50245 13.8555 7.19462 14.2259 7.19462H19.0627C19.4331 7.19462 19.7362 7.50245 19.7362 7.88346C19.7362 8.26448 19.4331 8.57231 19.0627 8.57231H14.2259ZM32.0702 18.776C34.1559 18.776 35.8461 20.5047 35.8461 22.6379C35.8461 24.7712 34.1559 26.4997 32.0702 26.4997C29.9843 26.4997 28.2942 24.7712 28.2942 22.6379C28.2942 20.5047 29.9843 18.776 32.0702 18.776ZM7.00243 18.776C4.91659 18.776 3.22647 20.5047 3.22647 22.6379C3.22647 24.7712 4.91659 26.4997 7.00243 26.4997C9.08827 26.4997 10.7784 24.7712 10.7784 22.6379C10.7784 20.5047 9.08827 18.776 7.00243 18.776Z" fill="white"></path></g></g><defs><clipPath id="clip0_223_22046"><rect width="40" height="40" fill="white"></rect></clipPath><clipPath id="clip1_223_22046"><rect width="40" height="40" fill="white"></rect></clipPath></defs></svg>