<svg viewBox="0 0 80 82" fill="none" xmlns="http://www.w3.org/2000/svg">
<g clip-path="url(#clip0_801_3062)">
<rect width="80" height="81.9965" fill="#F9FAFB"/>
<path d="M47.9977 10.5266H32.0024C30.8981 10.5266 30.0029 11.4218 30.0029 12.526V22.5231C30.0029 23.6274 30.8981 24.5226 32.0024 24.5226H47.9977C49.102 24.5226 49.9971 23.6274 49.9971 22.5231V12.526C49.9971 11.4218 49.102 10.5266 47.9977 10.5266Z" fill="#6A6F78"/>
<path d="M42.9992 7.52759H37.0009C36.4488 7.52759 36.0012 7.97517 36.0012 8.5273V9.52701C36.0012 10.0791 36.4488 10.5267 37.0009 10.5267H42.9992C43.5513 10.5267 43.9989 10.0791 43.9989 9.52701V8.5273C43.9989 7.97517 43.5513 7.52759 42.9992 7.52759Z" fill="#6A6F78"/>
<path d="M40.0001 21.5236C42.2086 21.5236 43.9989 19.7332 43.9989 17.5247C43.9989 15.3162 42.2086 13.5259 40.0001 13.5259C37.7916 13.5259 36.0012 15.3162 36.0012 17.5247C36.0012 19.7332 37.7916 21.5236 40.0001 21.5236Z" fill="#F9FAFB"/>
<path d="M40 20.0239C41.3803 20.0239 42.4993 18.905 42.4993 17.5247C42.4993 16.1444 41.3803 15.0254 40 15.0254C38.6197 15.0254 37.5007 16.1444 37.5007 17.5247C37.5007 18.905 38.6197 20.0239 40 20.0239Z" fill="#6A6F78"/>
<path d="M25.5489 33.7935V42.5208H24.4921V33.7935H25.5489ZM27.5315 42.5208V35.9753H28.5031V36.998H28.5884C28.7247 36.6486 28.9449 36.3773 29.2489 36.1841C29.5528 35.9881 29.9179 35.8901 30.344 35.8901C30.7759 35.8901 31.1352 35.9881 31.4222 36.1841C31.7119 36.3773 31.9378 36.6486 32.0997 36.998H32.1679C32.3355 36.66 32.5869 36.3915 32.9222 36.1926C33.2574 35.9909 33.6594 35.8901 34.1281 35.8901C34.7134 35.8901 35.192 36.0733 35.5642 36.4398C35.9364 36.8034 36.1224 37.3702 36.1224 38.1401V42.5208H35.1168V38.1401C35.1168 37.6571 34.9847 37.3119 34.7205 37.1046C34.4563 36.8972 34.1452 36.7935 33.7872 36.7935C33.327 36.7935 32.9705 36.9327 32.7176 37.2111C32.4648 37.4867 32.3384 37.8361 32.3384 38.2594V42.5208H31.3156V38.0378C31.3156 37.6656 31.1949 37.3659 30.9534 37.1386C30.7119 36.9085 30.4009 36.7935 30.0202 36.7935C29.7588 36.7935 29.5145 36.8631 29.2872 37.0023C29.0628 37.1415 28.881 37.3347 28.7418 37.5818C28.6054 37.8261 28.5372 38.1088 28.5372 38.4298V42.5208H27.5315ZM39.8874 42.6742C39.4726 42.6742 39.0962 42.596 38.7581 42.4398C38.42 42.2807 38.1516 42.052 37.9527 41.7537C37.7538 41.4526 37.6544 41.0889 37.6544 40.6628C37.6544 40.2878 37.7283 39.9838 37.876 39.7509C38.0237 39.5151 38.2212 39.3304 38.4683 39.1969C38.7155 39.0634 38.9882 38.9639 39.2865 38.8986C39.5876 38.8304 39.8902 38.7764 40.1942 38.7367C40.5919 38.6855 40.9144 38.6472 41.1615 38.6216C41.4115 38.5932 41.5933 38.5463 41.707 38.481C41.8234 38.4156 41.8817 38.302 41.8817 38.1401V38.106C41.8817 37.6855 41.7666 37.3588 41.5365 37.1259C41.3092 36.8929 40.9641 36.7764 40.501 36.7764C40.0209 36.7764 39.6445 36.8815 39.3717 37.0918C39.099 37.302 38.9072 37.5264 38.7965 37.7651L37.8419 37.4242C38.0124 37.0264 38.2396 36.7168 38.5237 36.4952C38.8107 36.2708 39.1232 36.1145 39.4612 36.0264C39.8021 35.9355 40.1374 35.8901 40.4669 35.8901C40.6771 35.8901 40.9186 35.9156 41.1913 35.9668C41.4669 36.0151 41.7325 36.1159 41.9882 36.2693C42.2467 36.4227 42.4612 36.6543 42.6317 36.9639C42.8021 37.2736 42.8874 37.6884 42.8874 38.2083V42.5208H41.8817V41.6344H41.8305C41.7624 41.7764 41.6487 41.9284 41.4896 42.0904C41.3305 42.2523 41.1189 42.3901 40.8547 42.5037C40.5905 42.6173 40.268 42.6742 39.8874 42.6742ZM40.0408 41.7708C40.4385 41.7708 40.7737 41.6926 41.0465 41.5364C41.322 41.3801 41.5294 41.1784 41.6686 40.9313C41.8107 40.6841 41.8817 40.4242 41.8817 40.1514V39.231C41.8391 39.2821 41.7453 39.329 41.6004 39.3716C41.4584 39.4114 41.2936 39.4469 41.1061 39.4781C40.9215 39.5065 40.7411 39.5321 40.5649 39.5548C40.3916 39.5747 40.251 39.5918 40.143 39.606C39.8817 39.6401 39.6374 39.6955 39.4101 39.7722C39.1857 39.846 39.0038 39.9583 38.8646 40.1088C38.7283 40.2565 38.6601 40.4583 38.6601 40.7139C38.6601 41.0634 38.7894 41.3276 39.0479 41.5065C39.3092 41.6827 39.6402 41.7708 40.0408 41.7708ZM47.365 45.1117C46.8792 45.1117 46.4616 45.0492 46.1121 44.9242C45.7627 44.802 45.4715 44.6401 45.2386 44.4384C45.0085 44.2395 44.8252 44.0264 44.6889 43.7992L45.49 43.2367C45.5809 43.356 45.696 43.4923 45.8352 43.6458C45.9744 43.802 46.1647 43.9369 46.4062 44.0506C46.6505 44.1671 46.9701 44.2253 47.365 44.2253C47.8934 44.2253 48.3295 44.0975 48.6732 43.8418C49.017 43.5861 49.1889 43.1855 49.1889 42.6401V41.3105H49.1036C49.0298 41.4298 48.9246 41.5776 48.7883 41.7537C48.6548 41.927 48.4616 42.0818 48.2087 42.2182C47.9587 42.3517 47.6207 42.4185 47.1945 42.4185C46.6661 42.4185 46.1917 42.2935 45.7712 42.0435C45.3536 41.7935 45.0227 41.4298 44.7783 40.9526C44.5369 40.4753 44.4161 39.8958 44.4161 39.2139C44.4161 38.5435 44.534 37.9597 44.7698 37.4625C45.0056 36.9625 45.3337 36.5761 45.7542 36.3034C46.1746 36.0279 46.6604 35.8901 47.2116 35.8901C47.6377 35.8901 47.9758 35.9611 48.2258 36.1031C48.4786 36.2423 48.6718 36.4014 48.8053 36.5804C48.9417 36.7565 49.0468 36.9014 49.1207 37.0151H49.2229V35.9753H50.1945V42.7083C50.1945 43.2708 50.0667 43.7281 49.811 44.0804C49.5582 44.4355 49.2173 44.6955 48.7883 44.8602C48.3621 45.0279 47.8877 45.1117 47.365 45.1117ZM47.3309 41.5151C47.7343 41.5151 48.0752 41.4227 48.3536 41.2381C48.632 41.0534 48.8437 40.7878 48.9886 40.4412C49.1335 40.0946 49.2059 39.6798 49.2059 39.1969C49.2059 38.7253 49.1349 38.3091 48.9928 37.9483C48.8508 37.5875 48.6406 37.3048 48.3621 37.1003C48.0837 36.8958 47.74 36.7935 47.3309 36.7935C46.9048 36.7935 46.5496 36.9014 46.2656 37.1173C45.9843 37.3333 45.7727 37.623 45.6306 37.9867C45.4914 38.3503 45.4218 38.7537 45.4218 39.1969C45.4218 39.6514 45.4928 40.0534 45.6349 40.4029C45.7798 40.7494 45.9928 41.0222 46.2741 41.221C46.5582 41.4171 46.9104 41.5151 47.3309 41.5151ZM54.7798 42.6571C54.1491 42.6571 53.605 42.5179 53.1477 42.2395C52.6931 41.9583 52.3423 41.5662 52.0951 41.0634C51.8508 40.5577 51.7286 39.9696 51.7286 39.2992C51.7286 38.6287 51.8508 38.0378 52.0951 37.5264C52.3423 37.0122 52.686 36.6117 53.1264 36.3247C53.5695 36.035 54.0866 35.8901 54.6775 35.8901C55.0184 35.8901 55.355 35.9469 55.6874 36.0605C56.0198 36.1742 56.3224 36.3588 56.5951 36.6145C56.8678 36.8673 57.0852 37.2026 57.2471 37.6202C57.409 38.0378 57.49 38.552 57.49 39.1628V39.5889H52.4445V38.7196H56.4673C56.4673 38.3503 56.3934 38.0208 56.2457 37.731C56.1008 37.4412 55.8934 37.2125 55.6235 37.0449C55.3565 36.8773 55.0411 36.7935 54.6775 36.7935C54.2769 36.7935 53.9303 36.8929 53.6377 37.0918C53.3479 37.2878 53.1249 37.5435 52.9687 37.8588C52.8124 38.1742 52.7343 38.5122 52.7343 38.873V39.4526C52.7343 39.9469 52.8195 40.3659 52.99 40.7097C53.1633 41.0506 53.4033 41.3105 53.7102 41.4895C54.017 41.6656 54.3735 41.7537 54.7798 41.7537C55.044 41.7537 55.2826 41.7168 55.4957 41.6429C55.7116 41.5662 55.8977 41.4526 56.0539 41.302C56.2102 41.1486 56.3309 40.9583 56.4161 40.731L57.3877 41.0037C57.2854 41.3333 57.1136 41.623 56.8721 41.873C56.6306 42.1202 56.3323 42.3134 55.9772 42.4526C55.6221 42.5889 55.2229 42.6571 54.7798 42.6571Z" fill="#6A6F78"/>
<path d="M26.642 51.5034H25.5852C25.5227 51.1994 25.4134 50.9324 25.2571 50.7023C25.1037 50.4722 24.9162 50.279 24.6946 50.1227C24.4759 49.9636 24.233 49.8443 23.9659 49.7648C23.6989 49.6852 23.4205 49.6455 23.1307 49.6455C22.6023 49.6455 22.1236 49.779 21.6946 50.046C21.2685 50.3131 20.929 50.7065 20.6761 51.2264C20.4261 51.7463 20.3011 52.3841 20.3011 53.1398C20.3011 53.8955 20.4261 54.5332 20.6761 55.0531C20.929 55.573 21.2685 55.9665 21.6946 56.2335C22.1236 56.5006 22.6023 56.6341 23.1307 56.6341C23.4205 56.6341 23.6989 56.5943 23.9659 56.5148C24.233 56.4352 24.4759 56.3173 24.6946 56.1611C24.9162 56.002 25.1037 55.8074 25.2571 55.5773C25.4134 55.3443 25.5227 55.0773 25.5852 54.7761H26.642C26.5625 55.2222 26.4176 55.6213 26.2074 55.9736C25.9972 56.3259 25.7358 56.6256 25.4233 56.8727C25.1108 57.1171 24.7599 57.3031 24.3707 57.431C23.9844 57.5588 23.571 57.6227 23.1307 57.6227C22.3864 57.6227 21.7244 57.4409 21.1449 57.0773C20.5653 56.7136 20.1094 56.1966 19.777 55.5261C19.4446 54.8557 19.2784 54.0602 19.2784 53.1398C19.2784 52.2193 19.4446 51.4239 19.777 50.7534C20.1094 50.083 20.5653 49.5659 21.1449 49.2023C21.7244 48.8386 22.3864 48.6568 23.1307 48.6568C23.571 48.6568 23.9844 48.7207 24.3707 48.8486C24.7599 48.9764 25.1108 49.1639 25.4233 49.4111C25.7358 49.6554 25.9972 49.9537 26.2074 50.306C26.4176 50.6554 26.5625 51.0546 26.642 51.5034ZM30.8725 57.6398C30.2816 57.6398 29.7631 57.4992 29.3171 57.2179C28.8739 56.9367 28.5273 56.5432 28.2773 56.0375C28.0302 55.5318 27.9066 54.9409 27.9066 54.2648C27.9066 53.583 28.0302 52.9878 28.2773 52.4793C28.5273 51.9707 28.8739 51.5759 29.3171 51.2946C29.7631 51.0134 30.2816 50.8727 30.8725 50.8727C31.4634 50.8727 31.9805 51.0134 32.4237 51.2946C32.8697 51.5759 33.2163 51.9707 33.4634 52.4793C33.7134 52.9878 33.8384 53.583 33.8384 54.2648C33.8384 54.9409 33.7134 55.5318 33.4634 56.0375C33.2163 56.5432 32.8697 56.9367 32.4237 57.2179C31.9805 57.4992 31.4634 57.6398 30.8725 57.6398ZM30.8725 56.7364C31.3214 56.7364 31.6907 56.6213 31.9805 56.3912C32.2702 56.1611 32.4847 55.8585 32.6239 55.4835C32.7631 55.1085 32.8327 54.7023 32.8327 54.2648C32.8327 53.8273 32.7631 53.4196 32.6239 53.0418C32.4847 52.6639 32.2702 52.3585 31.9805 52.1256C31.6907 51.8926 31.3214 51.7761 30.8725 51.7761C30.4237 51.7761 30.0543 51.8926 29.7646 52.1256C29.4748 52.3585 29.2603 52.6639 29.1211 53.0418C28.9819 53.4196 28.9123 53.8273 28.9123 54.2648C28.9123 54.7023 28.9819 55.1085 29.1211 55.4835C29.2603 55.8585 29.4748 56.1611 29.7646 56.3912C30.0543 56.6213 30.4237 56.7364 30.8725 56.7364ZM35.3736 57.5034V50.958H36.3452V51.9807H36.4304C36.5668 51.6313 36.7869 51.36 37.0909 51.1668C37.3949 50.9707 37.7599 50.8727 38.1861 50.8727C38.6179 50.8727 38.9773 50.9707 39.2642 51.1668C39.554 51.36 39.7798 51.6313 39.9418 51.9807H40.0099C40.1776 51.6426 40.429 51.3742 40.7642 51.1753C41.0994 50.9736 41.5014 50.8727 41.9702 50.8727C42.5554 50.8727 43.0341 51.056 43.4062 51.4225C43.7784 51.7861 43.9645 52.3528 43.9645 53.1227V57.5034H42.9588V53.1227C42.9588 52.6398 42.8267 52.2946 42.5625 52.0872C42.2983 51.8798 41.9872 51.7761 41.6293 51.7761C41.169 51.7761 40.8125 51.9153 40.5597 52.1938C40.3068 52.4693 40.1804 52.8188 40.1804 53.2421V57.5034H39.1577V53.0205C39.1577 52.6483 39.0369 52.3486 38.7955 52.1213C38.554 51.8912 38.2429 51.7761 37.8622 51.7761C37.6009 51.7761 37.3565 51.8457 37.1293 51.985C36.9048 52.1242 36.723 52.3173 36.5838 52.5645C36.4474 52.8088 36.3793 53.0915 36.3793 53.4125V57.5034H35.3736ZM45.8033 57.5034V50.958H46.8089V57.5034H45.8033ZM46.3146 49.8671C46.1186 49.8671 45.9496 49.8003 45.8075 49.6668C45.6683 49.5332 45.5987 49.3727 45.5987 49.1852C45.5987 48.9977 45.6683 48.8372 45.8075 48.7037C45.9496 48.5702 46.1186 48.5034 46.3146 48.5034C46.5107 48.5034 46.6783 48.5702 46.8175 48.7037C46.9595 48.8372 47.0305 48.9977 47.0305 49.1852C47.0305 49.3727 46.9595 49.5332 46.8175 49.6668C46.6783 49.8003 46.5107 49.8671 46.3146 49.8671ZM49.6566 53.5659V57.5034H48.6509V50.958H49.6225V51.9807H49.7077C49.8612 51.6483 50.0941 51.3813 50.4066 51.1796C50.7191 50.975 51.1225 50.8727 51.6168 50.8727C52.06 50.8727 52.4478 50.9636 52.7802 51.1455C53.1126 51.3244 53.3711 51.5972 53.5558 51.9636C53.7404 52.3273 53.8327 52.7875 53.8327 53.3443V57.5034H52.8271V53.4125C52.8271 52.8983 52.6935 52.4977 52.4265 52.2108C52.1594 51.921 51.793 51.7761 51.3271 51.7761C51.006 51.7761 50.7191 51.8457 50.4663 51.985C50.2163 52.1242 50.0188 52.3273 49.8739 52.5943C49.729 52.8614 49.6566 53.1852 49.6566 53.5659ZM58.3125 60.0943C57.8267 60.0943 57.4091 60.0318 57.0597 59.9068C56.7102 59.7847 56.419 59.6227 56.1861 59.421C55.956 59.2222 55.7727 59.0091 55.6364 58.7818L56.4375 58.2193C56.5284 58.3386 56.6435 58.475 56.7827 58.6284C56.9219 58.7847 57.1122 58.9196 57.3537 59.0332C57.598 59.1497 57.9176 59.208 58.3125 59.208C58.8409 59.208 59.277 59.0801 59.6207 58.8244C59.9645 58.5688 60.1364 58.1682 60.1364 57.6227V56.2932H60.0511C59.9773 56.4125 59.8722 56.5602 59.7358 56.7364C59.6023 56.9097 59.4091 57.0645 59.1562 57.2009C58.9062 57.3344 58.5682 57.4011 58.142 57.4011C57.6136 57.4011 57.1392 57.2761 56.7188 57.0261C56.3011 56.7761 55.9702 56.4125 55.7259 55.9352C55.4844 55.458 55.3636 54.8784 55.3636 54.1966C55.3636 53.5261 55.4815 52.9423 55.7173 52.4452C55.9531 51.9452 56.2813 51.5588 56.7017 51.2861C57.1222 51.0105 57.608 50.8727 58.1591 50.8727C58.5852 50.8727 58.9233 50.9438 59.1733 51.0858C59.4261 51.225 59.6193 51.3841 59.7528 51.5631C59.8892 51.7392 59.9943 51.8841 60.0682 51.9977H60.1705V50.958H61.142V57.6909C61.142 58.2534 61.0142 58.7108 60.7585 59.0631C60.5057 59.4182 60.1648 59.6781 59.7358 59.8429C59.3097 60.0105 58.8352 60.0943 58.3125 60.0943ZM58.2784 56.4977C58.6818 56.4977 59.0227 56.4054 59.3011 56.2207C59.5795 56.0361 59.7912 55.7705 59.9361 55.4239C60.081 55.0773 60.1534 54.6625 60.1534 54.1796C60.1534 53.708 60.0824 53.2918 59.9403 52.931C59.7983 52.5702 59.5881 52.2875 59.3097 52.083C59.0313 51.8784 58.6875 51.7761 58.2784 51.7761C57.8523 51.7761 57.4972 51.8841 57.2131 52.1C56.9318 52.3159 56.7202 52.6057 56.5781 52.9693C56.4389 53.333 56.3693 53.7364 56.3693 54.1796C56.3693 54.6341 56.4403 55.0361 56.5824 55.3855C56.7273 55.7321 56.9403 56.0048 57.2216 56.2037C57.5057 56.3997 57.858 56.4977 58.2784 56.4977ZM31.646 65.958C31.5948 65.5261 31.3874 65.1909 31.0238 64.9523C30.6602 64.7136 30.2141 64.5943 29.6857 64.5943C29.2994 64.5943 28.9613 64.6568 28.6715 64.7818C28.3846 64.9068 28.1602 65.0787 27.9982 65.2975C27.8391 65.5162 27.7596 65.7648 27.7596 66.0432C27.7596 66.2761 27.815 66.4764 27.9258 66.644C28.0394 66.8088 28.1843 66.9466 28.3604 67.0574C28.5366 67.1653 28.7212 67.2548 28.9144 67.3259C29.1076 67.394 29.2852 67.4494 29.4471 67.4921L30.3335 67.7307C30.5607 67.7903 30.8136 67.8727 31.092 67.9778C31.3732 68.083 31.6417 68.2264 31.8974 68.4082C32.1559 68.5872 32.369 68.8173 32.5366 69.0986C32.7042 69.3798 32.788 69.725 32.788 70.1341C32.788 70.6057 32.6644 71.0318 32.4173 71.4125C32.1729 71.7932 31.815 72.0957 31.3434 72.3202C30.8746 72.5446 30.305 72.6568 29.6346 72.6568C29.0096 72.6568 28.4684 72.556 28.011 72.3543C27.5565 72.1526 27.1985 71.8713 26.9371 71.5105C26.6786 71.1497 26.5323 70.7307 26.4982 70.2534H27.5891C27.6175 70.583 27.7283 70.8557 27.9215 71.0716C28.1175 71.2847 28.3647 71.4438 28.663 71.5489C28.9641 71.6511 29.288 71.7023 29.6346 71.7023C30.038 71.7023 30.4002 71.6369 30.7212 71.5063C31.0423 71.3727 31.2965 71.1881 31.484 70.9523C31.6715 70.7136 31.7653 70.4352 31.7653 70.1171C31.7653 69.8273 31.6843 69.5915 31.5224 69.4097C31.3604 69.2278 31.1474 69.0801 30.8832 68.9665C30.619 68.8528 30.3335 68.7534 30.0266 68.6682L28.9528 68.3614C28.271 68.1653 27.7312 67.8855 27.3335 67.5219C26.9357 67.1582 26.7369 66.6824 26.7369 66.0943C26.7369 65.6057 26.869 65.1796 27.1332 64.8159C27.4002 64.4494 27.7582 64.1653 28.207 63.9636C28.6587 63.7591 29.163 63.6568 29.7198 63.6568C30.2823 63.6568 30.7823 63.7577 31.2198 63.9594C31.6573 64.1582 32.0039 64.431 32.2596 64.7776C32.5181 65.1242 32.6545 65.5176 32.6687 65.958H31.646ZM37.0483 72.6398C36.4574 72.6398 35.9389 72.4992 35.4929 72.2179C35.0497 71.9367 34.7031 71.5432 34.4531 71.0375C34.206 70.5318 34.0824 69.9409 34.0824 69.2648C34.0824 68.583 34.206 67.9878 34.4531 67.4793C34.7031 66.9707 35.0497 66.5759 35.4929 66.2946C35.9389 66.0134 36.4574 65.8727 37.0483 65.8727C37.6392 65.8727 38.1563 66.0134 38.5994 66.2946C39.0455 66.5759 39.392 66.9707 39.6392 67.4793C39.8892 67.9878 40.0142 68.583 40.0142 69.2648C40.0142 69.9409 39.8892 70.5318 39.6392 71.0375C39.392 71.5432 39.0455 71.9367 38.5994 72.2179C38.1563 72.4992 37.6392 72.6398 37.0483 72.6398ZM37.0483 71.7364C37.4972 71.7364 37.8665 71.6213 38.1562 71.3912C38.446 71.1611 38.6605 70.8585 38.7997 70.4835C38.9389 70.1085 39.0085 69.7023 39.0085 69.2648C39.0085 68.8273 38.9389 68.4196 38.7997 68.0418C38.6605 67.6639 38.446 67.3585 38.1562 67.1256C37.8665 66.8926 37.4972 66.7761 37.0483 66.7761C36.5994 66.7761 36.2301 66.8926 35.9403 67.1256C35.6506 67.3585 35.4361 67.6639 35.2969 68.0418C35.1577 68.4196 35.0881 68.8273 35.0881 69.2648C35.0881 69.7023 35.1577 70.1085 35.2969 70.4835C35.4361 70.8585 35.6506 71.1611 35.9403 71.3912C36.2301 71.6213 36.5994 71.7364 37.0483 71.7364ZM44.2085 72.6398C43.6175 72.6398 43.0991 72.4992 42.6531 72.2179C42.2099 71.9367 41.8633 71.5432 41.6133 71.0375C41.3661 70.5318 41.2425 69.9409 41.2425 69.2648C41.2425 68.583 41.3661 67.9878 41.6133 67.4793C41.8633 66.9707 42.2099 66.5759 42.6531 66.2946C43.0991 66.0134 43.6175 65.8727 44.2085 65.8727C44.7994 65.8727 45.3164 66.0134 45.7596 66.2946C46.2056 66.5759 46.5522 66.9707 46.7994 67.4793C47.0494 67.9878 47.1744 68.583 47.1744 69.2648C47.1744 69.9409 47.0494 70.5318 46.7994 71.0375C46.5522 71.5432 46.2056 71.9367 45.7596 72.2179C45.3164 72.4992 44.7994 72.6398 44.2085 72.6398ZM44.2085 71.7364C44.6573 71.7364 45.0266 71.6213 45.3164 71.3912C45.6062 71.1611 45.8207 70.8585 45.9599 70.4835C46.0991 70.1085 46.1687 69.7023 46.1687 69.2648C46.1687 68.8273 46.0991 68.4196 45.9599 68.0418C45.8207 67.6639 45.6062 67.3585 45.3164 67.1256C45.0266 66.8926 44.6573 66.7761 44.2085 66.7761C43.7596 66.7761 43.3903 66.8926 43.1005 67.1256C42.8107 67.3585 42.5962 67.6639 42.457 68.0418C42.3178 68.4196 42.2482 68.8273 42.2482 69.2648C42.2482 69.7023 42.3178 70.1085 42.457 70.4835C42.5962 70.8585 42.8107 71.1611 43.1005 71.3912C43.3903 71.6213 43.7596 71.7364 44.2085 71.7364ZM49.7152 68.5659V72.5034H48.7095V65.958H49.6811V66.9807H49.7663C49.9197 66.6483 50.1527 66.3813 50.4652 66.1796C50.7777 65.975 51.1811 65.8727 51.6754 65.8727C52.1186 65.8727 52.5064 65.9636 52.8388 66.1455C53.1712 66.3244 53.4297 66.5972 53.6143 66.9636C53.799 67.3273 53.8913 67.7875 53.8913 68.3443V72.5034H52.8857V68.4125C52.8857 67.8983 52.7521 67.4977 52.4851 67.2108C52.218 66.921 51.8516 66.7761 51.3857 66.7761C51.0646 66.7761 50.7777 66.8457 50.5249 66.985C50.2749 67.1242 50.0774 67.3273 49.9325 67.5943C49.7876 67.8614 49.7152 68.1852 49.7152 68.5659Z" fill="#6A6F78"/>
<mask id="path-7-inside-1_801_3062" fill="white">
<path d="M3.99316 3.99316H15.9897V15.9897H3.99316V3.99316Z"/>
</mask>
<path d="M3.99316 3.99316V2.88205H2.88205V3.99316H3.99316ZM3.99316 3.99316V5.10427H15.9897V3.99316V2.88205H3.99316V3.99316ZM3.99316 15.9897H5.10427V3.99316H3.99316H2.88205V15.9897H3.99316Z" fill="#6A7282" mask="url(#path-7-inside-1_801_3062)"/>
<mask id="path-9-inside-2_801_3062" fill="white">
<path d="M64.0105 3.99316H76.007V15.9897H64.0105V3.99316Z"/>
</mask>
<path d="M76.007 3.99316H77.1181V2.88205H76.007V3.99316ZM64.0105 3.99316V5.10427H76.007V3.99316V2.88205H64.0105V3.99316ZM76.007 3.99316H74.8959V15.9897H76.007H77.1181V3.99316H76.007Z" fill="#6A6F78" mask="url(#path-9-inside-2_801_3062)"/>
<mask id="path-11-inside-3_801_3062" fill="white">
<path d="M3.99316 66.0068H15.9897V78.0034H3.99316V66.0068Z"/>
</mask>
<path d="M3.99316 78.0034H2.88205V79.1145H3.99316V78.0034ZM15.9897 78.0034V76.8923H3.99316V78.0034V79.1145H15.9897V78.0034ZM3.99316 78.0034H5.10427V66.0068H3.99316H2.88205V78.0034H3.99316Z" fill="#6A7282" mask="url(#path-11-inside-3_801_3062)"/>
<mask id="path-13-inside-4_801_3062" fill="white">
<path d="M64.0105 66.0068H76.007V78.0034H64.0105V66.0068Z"/>
</mask>
<path d="M76.007 78.0034V79.1145H77.1181V78.0034H76.007ZM76.007 66.0068H74.8959V78.0034H76.007H77.1181V66.0068H76.007ZM76.007 78.0034V76.8923H64.0105V78.0034V79.1145H76.007V78.0034Z" fill="#6A7282" mask="url(#path-13-inside-4_801_3062)"/>
</g>
<defs>
<clipPath id="clip0_801_3062">
<rect width="80" height="81.9965" fill="white"/>
</clipPath>
</defs>
</svg>
